<svg xmlns="http://www.w3.org/2000/svg" width="32" height="32" viewBox="0 0 32 32">
    <g fill="none" fill-rule="evenodd" transform="translate(2 6)">
        <circle cx="7.5" cy="7.5" r="2.5" fill="#859196"/>
        <path fill="#859196" d="M7.5 10a2.5 2.5 0 0 1 2.5 2.5V14a1 1 0 0 1-1 1H6a1 1 0 0 1-1-1v-1.5A2.5 2.5 0 0 1 7.5 10z"/>
        <path fill="#BEC9CD" d="M13.75 5h8a1.25 1.25 0 0 1 0 2.5h-8a1.25 1.25 0 0 1 0-2.5z"/>
        <rect width="8" height="2.5" x="12.5" y="10" fill="#BEC9CD" rx="1.25"/>
        <path fill="#859196" fill-rule="nonzero" d="M3.75 2.5c-.69 0-1.25.56-1.25 1.25v12.5c0 .69.56 1.25 1.25 1.25h20.5c.69 0 1.25-.56 1.25-1.25V3.75c0-.69-.56-1.25-1.25-1.25H3.75zm0-2.5h20.5A3.75 3.75 0 0 1 28 3.75v12.5A3.75 3.75 0 0 1 24.25 20H3.75A3.75 3.75 0 0 1 0 16.25V3.75A3.75 3.75 0 0 1 3.75 0z"/>
    </g>
</svg>
