<?xml version="1.0" encoding="UTF-8"?>
<svg width="24px" height="24px" viewBox="0 0 24 24" version="1.1" xmlns="http://www.w3.org/2000/svg" xmlns:xlink="http://www.w3.org/1999/xlink">
    <!-- Generator: Sketch 50 (54983) - http://www.bohemiancoding.com/sketch -->
    <title>icon/24x24/delete-color</title>
    <desc>Created with Sketch.</desc>
    <defs></defs>
    <g id="Symbols" stroke="none" stroke-width="1" fill="none" fill-rule="evenodd">
        <g id="icon/24x24/delete-color">
            <g id="Group" transform="translate(5.000000, 3.000000)">
                <path d="M2.67190957,6.66666667 L3.17960437,14.6666667 L10.1537742,14.6666667 L10.661469,6.66666667 L2.67190957,6.66666667 Z M11.9948024,6.66666667 C11.9948024,6.69483652 11.9939096,6.72299929 11.9921255,6.75111259 L11.4844307,14.7511126 C11.4398691,15.4532919 10.8573661,16 10.1537742,16 L3.17960437,16 C2.47601253,16 1.89350948,15.4532919 1.84894789,14.7511126 L1.3412531,6.75111259 C1.3394566,6.72280433 1.33855718,6.69464644 1.33853038,6.66666667 L1.33333333,6.66666667 C0.596953667,6.66666667 0,6.069713 0,5.33333333 L0,4 C0,3.26362033 0.596953667,2.66666667 1.33333333,2.66666667 L4,2.66666667 L4,1.33333333 C4,0.596953667 4.59695367,0 5.33333333,0 L8,0 C8.73637967,0 9.33333333,0.596953667 9.33333333,1.33333333 L9.33333333,2.66666667 L12,2.66666667 C12.7363797,2.66666667 13.3333333,3.26362033 13.3333333,4 L13.3333333,5.33333333 C13.3333333,6.069713 12.7363797,6.66666667 12,6.66666667 L11.9948024,6.66666667 Z M7.5,2.66666667 C7.77614237,2.66666667 8,2.44280904 8,2.16666667 L8,1.83333333 C8,1.55719096 7.77614237,1.33333333 7.5,1.33333333 L5.83333333,1.33333333 C5.55719096,1.33333333 5.33333333,1.55719096 5.33333333,1.83333333 L5.33333333,2.16666667 C5.33333333,2.44280904 5.55719096,2.66666667 5.83333333,2.66666667 L7.5,2.66666667 Z M1.33333333,4.5 L1.33333333,4.83333333 C1.33333333,5.10947571 1.55719096,5.33333333 1.83333333,5.33333333 L11.5,5.33333333 C11.7761424,5.33333333 12,5.10947571 12,4.83333333 L12,4.5 C12,4.22385763 11.7761424,4 11.5,4 L1.83333333,4 C1.55719096,4 1.33333333,4.22385763 1.33333333,4.5 Z" id="Combined-Shape" fill="#EAA0D5" fill-rule="nonzero"></path>
                <path d="M5.32274015,8 L5.32274015,8 C5.69678044,8 6,8.30321956 6,8.67725985 L6,12.6984022 C6,13.049065 5.71573166,13.3333333 5.36506889,13.3333333 L5.36506889,13.3333333 C5.01278775,13.3333333 4.72565177,13.050719 4.72006061,12.6984822 L4.65622928,8.67717454 C4.65038627,8.30907076 4.94405665,8.00592698 5.31216044,8.00008396 C5.31568673,8.00002799 5.31921341,8 5.32274015,8 Z" id="Rectangle-8" fill="#F3C9E7"></path>
                <path d="M7.96417778,8 L7.96417778,8 C8.32886601,8 8.62450423,8.29563822 8.62450423,8.66032644 C8.62450423,8.66460393 8.62446266,8.66888131 8.62437954,8.67315798 L8.54588157,12.7119943 C8.53917444,13.0570863 8.25750618,13.3333333 7.91234901,13.3333333 L7.91234901,13.3333333 C7.56912815,13.3333333 7.29089267,13.0550978 7.29089267,12.711877 L7.29089267,8.67328512 C7.29089267,8.30144001 7.59233268,8 7.96417778,8 Z" id="Rectangle-8" fill="#F3C9E7"></path>
            </g>
        </g>
    </g>
</svg>