<svg xmlns="http://www.w3.org/2000/svg" width="32" height="32" viewBox="0 0 32 32">
    <path fill="#859196" fill-rule="nonzero" d="M7.788 11.232a1.095 1.095 0 0 0-.597.975v11.507c0 .605.49 1.095 1.095 1.095h4.108v-5.115a3.286 3.286 0 0 1 3.287-3.287h.547a3.286 3.286 0 0 1 3.287 3.287v5.115h4.108c.605 0 1.095-.49 1.095-1.095V12.207c0-.411-.23-.788-.597-.975L16.453 7.31a1.095 1.095 0 0 0-.997 0l-7.668 3.92zm-.998-1.95l7.668-3.922c.94-.48 2.053-.48 2.993 0l7.668 3.921a3.286 3.286 0 0 1 1.79 2.926v11.507A3.286 3.286 0 0 1 23.623 27h-4.108a2.19 2.19 0 0 1-2.191-2.19v-5.116c0-.605-.49-1.096-1.096-1.096h-.547c-.605 0-1.096.49-1.096 1.096v5.115c0 1.21-.98 2.191-2.19 2.191H8.285A3.286 3.286 0 0 1 5 23.714V12.207c0-1.234.691-2.364 1.79-2.926z"/>
</svg>
