<svg xmlns="http://www.w3.org/2000/svg" width="32" height="32" viewBox="0 0 32 32">
    <g fill="none" fill-rule="evenodd" transform="translate(6 3)">
        <rect width="2.435" height="2.435" x="4.87" y="8.522" fill="#BEC9CD" rx="1.217"/>
        <rect width="4.87" height="2.435" x="9.739" y="8.522" fill="#BEC9CD" rx="1.217"/>
        <rect width="9.739" height="2.435" x="4.87" y="13.391" fill="#BEC9CD" rx="1.217"/>
        <rect width="9.739" height="2.435" x="4.87" y="18.261" fill="#BEC9CD" rx="1.217"/>
        <path fill="#859196" fill-rule="nonzero" d="M7.63 1.217a2.434 2.434 0 0 1 4.218 0h3.978a3.652 3.652 0 0 1 3.652 3.653v17.478A3.652 3.652 0 0 1 15.826 26H3.652A3.652 3.652 0 0 1 0 22.348V4.87a3.652 3.652 0 0 1 3.652-3.653H7.63zm0 2.435H3.652c-.672 0-1.217.545-1.217 1.218v17.478c0 .672.545 1.217 1.217 1.217h12.174c.672 0 1.217-.545 1.217-1.217V4.87c0-.673-.545-1.218-1.217-1.218h-3.978a2.434 2.434 0 0 1-4.218 0z"/>
    </g>
</svg>
