<svg xmlns="http://www.w3.org/2000/svg" width="32" height="32" viewBox="0 0 32 32">
    <g fill="none" fill-rule="evenodd" transform="rotate(23 11.314 19.665)">
        <circle cx="14" cy="14" r="9.667" stroke="#859196" stroke-width="3"/>
        <path fill="#859196" d="M14 4.667c-1.824 0-2.99-.195-3.5-.584C14 3.5 11.323 0 14 0s0 3.5 3.5 4.083c-.51.39-1.676.584-3.5.584zM20.6 7.4c-1.29-1.29-1.977-2.252-2.063-2.887 2.888 2.062 3.47-2.305 5.362-.412 1.893 1.892-2.474 2.474-.412 5.362-.635-.086-1.598-.773-2.887-2.063zm2.733 6.6c0-1.824.195-2.99.584-3.5C24.5 14 28 11.323 28 14s-3.5 0-4.083 3.5c-.39-.51-.584-1.676-.584-3.5zM20.6 20.6c1.29-1.29 2.252-1.977 2.887-2.063-2.062 2.888 2.305 3.47.412 5.362-1.892 1.893-2.474-2.474-5.362-.412.086-.635.773-1.598 2.063-2.887zM14 23.333c1.824 0 2.99.195 3.5.584C14 24.5 16.677 28 14 28s0-3.5-3.5-4.083c.51-.39 1.676-.584 3.5-.584zM7.4 20.6c1.29 1.29 1.977 2.252 2.063 2.887-2.888-2.062-3.47 2.305-5.362.412-1.893-1.892 2.474-2.474.412-5.362.635.086 1.598.773 2.887 2.063zM4.667 14c0 1.824-.195 2.99-.584 3.5C3.5 14 0 16.677 0 14s3.5 0 4.083-3.5c.39.51.584 1.676.584 3.5zM7.4 7.4C6.11 8.69 5.148 9.377 4.513 9.463c2.062-2.888-2.305-3.47-.412-5.362 1.892-1.893 2.474 2.474 5.362.412C9.377 5.148 8.69 6.111 7.4 7.4z"/>
    </g>
</svg>
